<svg width="56" height="56" viewBox="0 0 56 56" fill="none" xmlns="http://www.w3.org/2000/svg">
<path opacity="0.3" fill-rule="evenodd" clip-rule="evenodd" d="M2.44784e-06 28C3.79974e-06 12.536 12.536 -3.79974e-06 28 -2.44784e-06C43.464 -1.09593e-06 56 12.536 56 28C56 43.464 43.464 56 28 56C12.536 56 1.09593e-06 43.464 2.44784e-06 28ZM1.12001 28C1.12001 13.1546 13.1546 1.12 28 1.12C42.8454 1.12 54.88 13.1546 54.88 28C54.88 42.8454 42.8454 54.88 28 54.88C13.1546 54.88 1.12 42.8454 1.12001 28ZM21.2664 36.4L12.8802 28.0068L12.8869 28.0001L12.88 27.9932L21.2662 19.6L22.7511 21.0861L16.8998 26.9423L41.72 26.9423L41.72 29.044L16.8863 29.044L22.7513 34.9139L21.2664 36.4Z" fill="white"/>
</svg>
